<svg id="Calque_2" data-name="Calque 2" xmlns="http://www.w3.org/2000/svg" xmlns:xlink="http://www.w3.org/1999/xlink" viewBox="0 0 595.28 841.89"><defs><style>.cls-1{fill:#1d1d1b;}.cls-2{fill:url(#Dégradé_sans_nom_13);}.cls-3{fill:url(#Dégradé_sans_nom_13-2);}.cls-4{fill:url(#Dégradé_sans_nom_13-3);}</style><linearGradient id="Dégradé_sans_nom_13" x1="206.56" y1="413.61" x2="206.56" y2="537.94" gradientUnits="userSpaceOnUse"><stop offset="0" stop-color="#0a7dac"/><stop offset="1" stop-color="#00a696"/></linearGradient><linearGradient id="Dégradé_sans_nom_13-2" x1="229.34" y1="392.24" x2="229.34" y2="528.81" xlink:href="#Dégradé_sans_nom_13"/><linearGradient id="Dégradé_sans_nom_13-3" x1="265.71" y1="374.74" x2="265.71" y2="531.07" xlink:href="#Dégradé_sans_nom_13"/></defs><polygon class="cls-1" points="146.01 450.96 138.57 450.96 138.57 549.12 273.6 564.59 268.29 571.27 321.24 571.27 315.93 564.59 451.86 547.45 451.86 450.96 444.88 450.96 444.88 541.68 309.71 558.37 309.71 565.66 281.49 565.66 281.49 558.07 146.01 543.51 146.01 450.96"/><path class="cls-1" d="M307.5,534.69v16.38s78.21-4.66,116.75-20.47l-.14-116.76L389,430.78V395.49L353.52,414v-39.1L302,415.54v9.56l47.71-39.78v132S329.24,533.14,307.5,534.69Zm81.74-8.19V436l27.53-14.4V525s-40.66,14.12-64.09,15.1C352.68,540.05,376.68,532,389.24,526.5Zm-33.74-4.66V419.21L385.15,403V519.3C360.44,531.87,339,533.44,339,533.44,354.09,526.08,355.5,521.84,355.5,521.84Z"/><path class="cls-2" d="M200.63,427.25,173.9,413.61V519.68s45.18,15.15,65.32,18.26c0,0-25.7-7.82-38.59-14.69Z"/><path class="cls-3" d="M235.08,517.61V408.52l-27.77-16.28v121.7s28.8,11.95,44.05,14.87C251.36,528.81,240.91,523.82,235.08,517.61Z"/><path class="cls-4" d="M279.6,410V460.2l-8-8L263.88,460V396.38l-23.06-21.64V509.89s16.09,10.45,49.79,21.18V417.47Z"/><path class="cls-1" d="M40.86,635c8.06,1.34,14.61,5.2,14.61,13.35,0,5.71-3.19,10.25-8.15,12.94-4.36,2.43-8.65,3.27-14.53,3.27H12.13v-2.35c7.14-.67,7.56-1.43,7.56-8.06V620.5c0-7-.76-7.56-7.56-8.15V610h22c6.3,0,10.24,1.09,12.93,2.94a11,11,0,0,1,5,9.41C52,630.25,45.56,633.86,40.86,635Zm-9.66-1c9.24,0,13-3.7,13-10.59,0-5.88-3.62-10.41-11.68-10.41-2.35,0-3.86.25-4.7.84-.68.5-.93,1.42-.93,4.11v16Zm-4.29,20c0,6.05,1.43,7.56,7.39,7.56,6.56,0,12.94-3.53,12.94-12.35,0-8.57-6.05-12.26-16.3-12.26h-4Z"/><path class="cls-1" d="M62.36,664.6v-2.35c6.89-.76,7.56-1.09,7.56-8.23V620.67c0-7.22-.67-7.56-7.56-8.32V610H84.87v2.35c-7,.76-7.64,1.1-7.64,8.32V654c0,7.22.67,7.47,7.64,8.23v2.35Z"/><path class="cls-1" d="M122.08,635c8.07,1.34,14.62,5.2,14.62,13.35,0,5.71-3.19,10.25-8.15,12.94-4.37,2.43-8.65,3.27-14.53,3.27H93.35v-2.35c7.14-.67,7.56-1.43,7.56-8.06V620.5c0-7-.75-7.56-7.56-8.15V610h22c6.3,0,10.25,1.09,12.94,2.94a11,11,0,0,1,4.95,9.41C133.25,630.25,126.79,633.86,122.08,635Zm-9.66-1c9.24,0,13-3.7,13-10.59,0-5.88-3.61-10.41-11.67-10.41-2.36,0-3.87.25-4.71.84-.67.5-.92,1.42-.92,4.11v16Zm-4.28,20c0,6.05,1.43,7.56,7.39,7.56,6.55,0,12.94-3.53,12.94-12.35,0-8.57-6-12.26-16.3-12.26h-4Z"/><path class="cls-1" d="M185.75,650.66c-.5,2.6-3,11.34-3.86,13.94H142.83v-2.35c7.64-.76,8.32-1.18,8.32-8.32V620.59c0-7.14-.84-7.56-7.56-8.24V610H166.1v2.35c-6.72.68-7.65,1-7.65,8.24v34.18c0,5.13.68,6.3,5.46,6.39l6.64.08c4.28,0,5.54-.5,7.48-2.6a28.59,28.59,0,0,0,5.12-8.65Z"/><path class="cls-1" d="M191.3,664.6v-2.35c6.89-.76,7.56-1.09,7.56-8.23V620.67c0-7.22-.67-7.56-7.56-8.32V610h22.51v2.35c-7,.76-7.64,1.1-7.64,8.32V654c0,7.22.67,7.47,7.64,8.23v2.35Z"/><path class="cls-1" d="M250.18,608.83c14.36,0,27.22,11,27.22,27.72,0,18.06-12.27,29.31-27.72,29.31-16.13,0-27.89-12.26-27.89-28.05C221.79,622.77,232.46,608.83,250.18,608.83Zm-1.68,3.1c-9.41,0-18,7.9-18,23.61s8.57,27.13,20.5,27.13c10.16,0,17.81-7.56,17.81-23.77C268.83,621.26,259.5,611.93,248.5,611.93Z"/><path class="cls-1" d="M349,623.19a31.16,31.16,0,0,0-2.69-7c-1.34-2.27-2.18-2.86-6.8-2.86h-8.4v40.91c0,6.55.67,7.48,8.65,8v2.35H315.28v-2.35c7.81-.5,8.48-1.34,8.48-8V613.36h-7.64c-4.62,0-6,.51-7.39,3a38,38,0,0,0-2.77,6.8h-2.53c.51-5.12,1-10.42,1.27-15.12h1.93c1.26,2,2.18,1.93,4.53,1.93h33.27c2.35,0,3-.33,4.28-1.93h2c0,3.95.33,10,.75,14.87Z"/><path class="cls-1" d="M408.18,665.27c-1.09,0-2-.08-3.11-.16-6.13-.42-9.4-2-13.1-7.23-3.11-4.28-6.13-9.57-8.82-13.86-1.68-2.69-2.77-3.19-7.06-3.19h-2.94V654c0,7.14.93,7.56,7.65,8.23v2.35H358.37v-2.35c7-.76,7.56-1.09,7.56-8.23V620.5c0-7.14-.92-7.39-7.56-8.15V610h21.42c6.13,0,10.25.76,13.44,2.86,3.44,2.18,5.71,6,5.71,11.09,0,7.22-4.62,11.76-10.83,14.44,1.51,2.61,5.12,8.24,7.64,12a77.66,77.66,0,0,0,6.64,8.65,12.07,12.07,0,0,0,6.13,3.86Zm-31-27.3c4.36,0,7.14-.67,9.24-2.43,3.27-2.44,4.62-5.8,4.62-10.33,0-9-6-12.27-12.44-12.27-2.43,0-3.86.34-4.45.84-.75.59-1,1.43-1,3.61V638Z"/><path class="cls-1" d="M444.13,664.6v-2.35c5.46-.67,6.14-1.51,5-4.7s-2.77-7.48-4.54-12.77H426.41c-1.34,3.78-2.6,7.05-3.78,10.5-1.85,5.46-.67,6.13,6.22,7v2.35H409.44v-2.35c5.29-.67,6.64-1.26,9.58-8.82l17.39-44.1,2.68-.5c5.3,14.36,11.09,30.24,16.38,44.77,2.69,7.31,3.45,8,9.41,8.65v2.35Zm-8.4-44.77c-2.68,7.22-5.54,14.87-8.06,21.5h15.71Z"/><path class="cls-1" d="M518.14,651.16a107.91,107.91,0,0,1-4.62,12.69,77,77,0,0,1-15.38,2c-20.07,0-30.32-13.35-30.32-28.05,0-17.14,13-29,31.84-29,7.22,0,13.1,1.51,15.87,1.93.34,3.78.93,8.82,1.6,13l-2.61.59c-1.68-5.63-3.69-9.08-8-10.84a22.89,22.89,0,0,0-8.82-1.6c-13.86,0-21.16,10.25-21.16,24.11,0,16.21,8.4,26.63,22,26.63,8.57,0,12.77-3.95,17.06-12.35Z"/><path class="cls-1" d="M526.2,610h22.43v2.35c-6.56.59-7.73,1.18-7.73,8.66v14.45c1.68-.17,3.61-1.52,6.05-3.87,4.7-4.45,10.33-10.16,14.19-14.53,2.52-2.86,2.27-3.95-1.34-4.45l-2.35-.26V610h20.41v2.35c-6.3.76-8.49,1.18-14.11,7-2.52,2.43-9.08,8.82-14.45,14.11,6.38,7.56,15.71,18.31,20.07,22.93s5.38,5.29,10.59,5.88v2.35H566.52c-6.47-7.31-13.27-15.45-20.92-24.36-1.93-2.35-3.36-2.52-4.7-2.43v16c0,7.3.75,7.89,7.73,8.48v2.35H526.2v-2.35c6.89-.59,7.56-1.18,7.56-8.48V621c0-7.56-.59-8.15-7.56-8.66Z"/><path class="cls-1" d="M15.76,693h558C299.6,679.94,15.76,693,15.76,693Z"/></svg>